<svg fill="none" height="92" viewBox="0 0 92 92" width="92" xmlns="http://www.w3.org/2000/svg"><path d="m45.7178 65.4249c-3.9696 0-7.6135-1.3355-9.9595-3.3299-1.1916.3578-2.7157.9334-3.6773 1.6474-.8235.6106-.7205 1.2333-.5723 1.4845.6512 1.1047 11.172.7055 14.2091.3617zm0 0c3.9702 0 7.6138-1.3355 9.9602-3.3299 1.1909.3578 2.7153.9334 3.6772 1.6474.8228.6106.7202 1.2333.5717 1.4845-.6512 1.1047-11.1717.7055-14.2091.3617z" fill="#faab07"/><path d="m45.7409 41.511c6.5557-.0446 11.8096-1.3202 13.5899-1.8092.4244-.1168.6512-.326.6512-.326.0016-.0602.0269-1.0728.0269-1.5949 0-8.7974-4.1314-17.637-14.2921-17.6373-10.1606.0003-14.2923 8.8403-14.2923 17.6369 0 .5228.0253 1.5351.0272 1.595 0 0 .1846.1958.5226.2906 1.6438.4597 6.9965 1.7987 13.7182 1.8449zm17.8144 7.3284c-.4063-1.3144-.9609-2.8473-1.5228-4.3193 0 0-.3231-.0402-.4868.0073-5.0401 1.4717-11.1495 2.4099-15.8048 2.3532h-.0484c-4.6294.0557-10.6972-.8713-15.7206-2.3287-.1919-.0557-.5707-.0318-.5707-.0318-.5619 1.472-1.1165 3.0052-1.5228 4.3193-1.9381 6.2684-1.31 8.8623-.8321 8.9203 1.0259.1247 3.9927-4.7183 3.9927-4.7183 0 4.9214 4.4206 12.4778 14.5435 12.5472h.2686c10.1227-.0694 14.5433-7.6258 14.5433-12.5472 0 0 2.9671 4.843 3.993 4.7186.4776-.0583 1.1057-2.6525-.8321-8.9206z" fill="#000"/><path d="m42.1014 33.1399c-1.3784.0628-2.556-1.5153-2.6301-3.5219-.0748-2.0072.9812-3.6852 2.3596-3.7479 1.3768-.0621 2.5541 1.5153 2.6288 3.5225.0754 2.0075-.9809 3.6856-2.3583 3.7473zm9.8607-3.5219c-.0738 2.0063-1.2514 3.5847-2.6298 3.5219-1.3778-.062-2.4337-1.7398-2.3584-3.747.0748-2.0072 1.2518-3.5846 2.6289-3.5228 1.3784.0627 2.4344 1.7407 2.3593 3.7479z" fill="#fff"/><path d="m54.4117 35.9736c-.3681-.8198-4.0779-1.7334-8.6702-1.7334h-.0494c-4.5925 0-8.3021.9136-8.6704 1.7337-.0174.0365-.0266.0764-.0269.1168.0006.0566.0183.1117.0506.1579.3104.4543 4.4295 2.7019 8.6467 2.7019h.0494c4.217 0 8.336-2.2469 8.6464-2.7019.0326-.0464.0503-.1017.0507-.1585-.0003-.0403-.0095-.0799-.0269-.1162" fill="#faab07"/><path d="m43.7956 29.6476c.063.7927-.3697 1.4969-.9648 1.5736-.5964.0771-1.1301-.503-1.1934-1.2957-.0624-.7933.3696-1.4975.9638-1.5739.5973-.0777 1.132.503 1.1944 1.2957zm3.7868.2649c.1219-.2194.9514-1.3727 2.669-.9528.4514.1104.6601.2728.7041.3365.065.0942.083.2285.0168.4094-.1305.3584-.4.3486-.5492.2785-.0966-.0452-1.2929-.8468-2.3951.3493-.076.0818-.2116.1101-.3398.0127-.1289-.0981-.1818-.2961-.1058-.4336z" fill="#000"/><path d="m45.7409 46.5922h-.0484c-3.1661.0382-7.0048-.3833-10.7226-1.12-.318 1.8522-.5099 4.1806-.3452 6.957.4168 7.0174 4.5631 11.4288 10.9632 11.4925h.2597c6.4005-.0637 10.5465-4.4751 10.9639-11.4925.1647-2.777-.0275-5.1048-.3458-6.9573-3.7181.737-7.5578 1.1588-10.7245 1.12" fill="#fff"/><g fill="#eb1923"><path d="m36.7224 46.0048v6.906s3.1473.638 6.3007.1961v-6.3698c-1.9976-.1137-4.152-.3668-6.3007-.7323z"/><path d="m59.982 39.3758s-6.1224 1.9426-14.2411 1.9977h-.0484c-8.1055-.0548-14.2199-1.9913-14.2408-1.9977l-2.0505 5.1439c5.1288 1.5542 11.4849 2.5558 16.2913 2.4975h.0484c4.8064.0583 11.1622-.9433 16.2916-2.4975z"/></g></svg>